<svg xmlns="http://www.w3.org/2000/svg" width="772" height="8" viewBox="0 0 772 8" fill="none">
  <path d="M0 6.58896V1.37895C0 1.03162 3.38441 0.7277 10.1532 0.4672C18.2758 0.206699 28.4291 0.0764501 40.613 0.0764501C94.7636 0.0330334 208.48 0.0547407 381.762 0.141574C555.044 0.228408 668.761 0.184993 722.911 0.0113262C748.633 -0.0755073 762.847 0.336948 765.555 1.2487L771.647 6.45871C774.354 7.28363 761.494 7.7395 733.065 7.82633C678.914 8 563.844 8.04342 387.854 7.95658C211.864 7.86975 96.1174 7.84804 40.613 7.89146C13.5377 7.89146 0 7.45729 0 6.58896Z" fill="#6A3200"/>
</svg>