<svg width="637" height="785" viewBox="0 0 637 785" fill="none" xmlns="http://www.w3.org/2000/svg">
<g opacity="0.3" filter="url(#filter0_f_0_289)">
<path d="M729.775 47.3192C736.743 62.2737 743.421 77.1975 749.587 92.3105C755.82 107.38 761.717 122.522 767.091 137.799C772.474 153.074 777.404 168.449 781.721 183.95C786.079 199.439 789.747 215.083 792.519 230.824C798.275 262.271 800.46 294.238 797.191 325.869C795.394 341.649 792.178 357.271 787.498 372.65C782.569 387.953 775.771 402.648 767.995 417.263C779.171 405.109 788.48 391.113 796.082 376.09C803.249 360.884 808.457 344.698 811.829 328.107C818.161 294.823 817.128 260.435 811.05 227.477C809.616 219.2 807.686 211.046 805.759 202.901L802.456 190.8C801.334 186.772 800.046 182.806 798.793 178.825C793.656 162.948 787.64 147.396 780.778 132.27C773.908 117.147 766.27 102.407 757.809 88.1811C749.243 74.0314 740.285 60.0993 729.775 47.3192Z" fill="black"/>
<path d="M765.707 402.11C758.862 402.46 752.065 403.684 745.409 405.29C738.711 406.837 732.18 408.925 725.701 411.207C712.773 415.835 700.341 421.746 688.3 428.362C682.409 431.85 676.382 435.205 670.748 439.108C667.9 441.014 664.979 442.844 662.196 444.849L653.924 450.957C651.139 452.968 648.429 455.07 645.814 457.282L637.887 463.821C635.188 465.99 632.826 468.307 630.338 470.558L622.952 477.355L622.04 478.214C621.747 478.496 621.365 478.862 621.333 478.871L619.82 480.142L616.191 483.106C613.707 485.065 611.211 487.024 608.653 488.935C603.65 492.894 598.422 496.615 593.224 500.367C582.808 507.872 572.088 514.957 561.191 521.85C550.287 528.767 539.014 535.013 527.476 541.147C515.9 547.266 503.871 552.42 491.272 557.874C498.02 558.096 505.011 558.5 511.792 557.67C515.205 557.352 518.682 557.113 522.062 556.545L532.238 554.732C545.693 551.815 558.977 547.693 571.688 542.352C584.421 537.044 596.695 530.686 608.498 523.572C614.4 520.008 620.132 516.182 625.814 512.218C628.64 510.231 631.396 508.108 634.179 506.007L638.336 502.733L639.386 501.885L640.665 500.828C641.279 500.308 641.491 500.096 641.804 499.813L642.708 498.969C647.493 494.466 652.27 489.727 657.069 485.424C661.843 481.093 666.527 476.635 671.428 472.452C681.021 463.795 691.03 455.672 701.058 447.444C711.21 439.404 721.567 431.53 732.265 423.941C743.007 416.357 753.943 408.981 765.707 402.11Z" fill="black"/>
<path d="M703.81 20.0396C710.724 54.081 719.039 87.1972 727.123 120.276C735.268 153.308 743.394 186.171 750.637 219.051C757.788 251.925 764.346 284.832 767.612 317.813C769.19 334.285 769.981 350.808 768.531 367.122C767.076 383.407 763.313 399.622 753.277 413.942C760.543 409.138 766.751 402.337 771.536 394.687C776.406 387.045 779.922 378.601 782.637 370.008C788.021 352.736 790.03 334.804 790.637 317.102C790.781 312.665 790.779 308.246 790.779 303.822C790.684 299.41 790.544 294.994 790.301 290.6C789.892 281.801 789.061 273.046 788.062 264.344C787.043 255.644 785.721 246.995 784.293 238.386C782.742 229.803 781.086 221.247 779.236 212.743C771.711 178.766 761.419 145.621 749.01 113.364C742.75 97.2542 735.982 81.3501 728.539 65.7393C724.792 57.943 720.947 50.199 716.843 42.5719C712.776 34.9392 708.46 27.3947 703.81 20.0396Z" fill="black"/>
<path d="M622.86 51.8382C625.928 54.449 628.752 57.1856 631.366 60.1427C634.031 63.026 636.537 66.0164 638.96 69.0468C643.756 75.155 648.234 81.4137 652.279 87.9484C660.494 100.885 667.412 114.506 673.558 128.413C679.679 142.339 684.988 156.608 689.683 171.111C694.444 185.583 698.491 200.347 702.094 215.25C709.35 245.057 715.055 275.445 719.881 306.266C720.975 313.986 722.41 321.683 723.486 329.446L725.222 341.093C725.852 344.98 726.487 348.87 726.992 352.774C728.092 360.578 729.379 368.402 730.6 376.256C731.723 384.114 733.065 391.997 734.637 399.917C736.241 392.042 737.614 384.129 738.764 376.189C739.905 368.252 740.598 360.287 741.379 352.299C742.11 344.316 742.355 336.312 742.704 328.292C742.936 324.282 742.896 320.271 742.891 316.26C742.885 312.249 742.907 308.226 742.827 304.213C742.193 272.09 738.277 239.847 730.537 208.265L729.074 202.354L727.409 196.477C726.266 192.567 725.257 188.625 723.993 184.747L720.072 173.15C718.772 169.286 717.237 165.477 715.746 161.673C709.676 146.487 702.503 131.652 693.835 117.655C685.135 103.702 675.168 90.4296 663.385 78.895C657.541 73.1107 651.228 67.7724 644.494 63.0924C637.776 58.4425 630.578 54.2936 622.86 51.8382Z" fill="black"/>
<path d="M566.058 9.12206C569.496 11.6942 572.578 14.5998 575.471 17.6903L579.745 22.3498C581.157 23.9022 582.39 25.6452 583.709 27.2742L587.615 32.2057L591.22 37.3867C593.622 40.8292 596.064 44.2051 598.123 47.8998L604.664 58.6138L610.581 69.7247C614.734 76.9706 618.002 84.7568 621.655 92.2799L624.361 97.9395C625.227 99.8459 625.964 101.821 626.778 103.759L631.615 115.38L634.043 121.179C634.862 123.107 635.682 125.034 636.359 127.03L640.685 138.875C646.828 154.5 651.605 170.695 656.985 186.638L657.995 189.631L658.869 192.67L660.616 198.751L664.122 210.915L667.733 223.05L669.541 229.119L671.141 235.253C673.281 243.433 675.369 251.63 677.605 259.797C679.787 267.973 682.143 276.121 683.977 284.403C685.946 292.655 687.976 300.894 690.059 309.136C692.08 317.39 694.458 325.584 696.215 333.905C700.148 350.473 704.028 367.086 708.763 383.626C708.173 366.495 706.722 349.435 705.327 332.338C704.707 323.773 703.36 315.32 702.214 306.827C701.023 298.342 699.776 289.858 698.468 281.374C697.755 277.145 697.272 272.872 696.36 268.679L693.782 256.068C692.089 247.648 690.24 239.261 688.447 230.858C687.988 228.756 687.571 226.652 687.047 224.567L685.373 218.336L682.023 205.867L678.568 193.425L676.841 187.205L675.973 184.095L674.955 181.022L666.643 156.511C663.971 148.318 660.542 140.35 657.27 132.357L652.296 120.383C651.511 118.373 650.579 116.415 649.601 114.478L646.738 108.64L641 96.9831C640.011 95.0534 639.098 93.099 638.052 91.1977L634.799 85.5504L628.225 74.3125C626.129 70.5281 623.612 66.9517 621.146 63.3703L613.749 52.6473L605.554 42.4673C604.13 40.8187 602.882 39.0537 601.324 37.5057L596.825 32.7638L592.339 28.0439C590.755 26.5421 589.089 25.1228 587.465 23.6794C581.043 17.8896 573.942 12.5677 566.058 9.12206Z" fill="black"/>
<path d="M513.239 5.95989C526.833 36.4496 542.09 65.5239 557.43 94.468C572.858 123.341 588.612 151.875 604.17 180.393C619.672 208.925 635.178 237.357 649.143 266.328C656.132 280.809 662.698 295.443 668.002 310.44C670.63 317.939 672.949 325.56 674.358 333.338C675.687 341.111 676.394 349.111 674.256 357.238C676.827 353.908 678.565 349.928 679.99 345.827C681.263 341.694 682.072 337.395 682.514 333.083C683.444 324.436 682.967 315.789 682.039 307.272C680.034 290.239 675.719 273.764 670.519 257.769C659.957 225.779 645.744 195.498 629.862 166.357C613.927 137.226 596.173 109.237 576.906 82.3406C567.232 68.9166 557.202 55.752 546.666 42.9571C536.096 30.1972 525.205 17.6618 513.239 5.95989Z" fill="black"/>
<path d="M461.964 7.58702L517.066 87.6871C526.164 101.01 535.17 114.362 544.001 127.805C552.834 141.242 561.601 154.702 569.983 168.377C586.863 195.636 602.896 223.355 616.656 252.125C623.472 266.527 629.709 281.197 634.862 296.291C640.098 311.372 643.905 326.953 645.512 343.209C648.114 327.007 646.699 310.24 643.822 293.994C640.815 277.714 636.009 261.83 630.299 246.352C618.642 215.465 603.241 186.26 585.99 158.452C581.659 151.5 577.207 144.641 572.692 137.822C568.06 131.085 563.516 124.29 558.69 117.7C549.154 104.438 539.241 91.4633 528.898 78.8548C518.557 66.2412 507.882 53.9121 496.772 41.9808C485.557 30.1253 474.231 18.3903 461.964 7.58702Z" fill="black"/>
<path d="M410.309 -1.02104C417.644 3.15192 424.151 8.43824 430.45 13.8366C431.995 15.2275 433.524 16.6359 435.094 17.9858L437.427 20.0227C438.185 20.7331 438.905 21.4837 439.649 22.2066L448.44 30.9627L456.76 40.17C458.13 41.712 459.556 43.1911 460.912 44.7454L464.822 49.5632L472.673 59.1213C475.318 62.2737 477.588 65.7691 480.111 69.028L487.492 78.95C489.945 82.2577 492.133 85.788 494.465 89.1891L501.388 99.4545C502.533 101.174 503.758 102.823 504.834 104.591L508.041 109.905L521.018 131.032L533.114 152.738C535.12 156.36 537.29 159.887 539.188 163.577L544.813 174.684L556.287 196.794L577.766 241.901C581.12 249.539 584.533 257.156 588 264.764L593.242 276.168C595.025 279.963 596.83 283.743 598.404 287.628C605.057 303.009 611.665 318.445 619.106 333.68C615.645 317.158 611.347 300.843 607.092 284.478C606.077 280.369 604.733 276.37 603.459 272.344L599.538 260.296C596.899 252.272 594.201 244.255 591.452 236.256C588.711 228.255 585.319 220.493 582.186 212.628C579.009 204.778 575.765 196.951 572.431 189.161L561.374 166.233L555.736 154.819C553.82 151.029 551.64 147.367 549.595 143.647L536.945 121.492C532.287 114.351 527.651 107.196 522.927 100.111L519.383 94.8017C518.199 93.0325 516.847 91.3644 515.589 89.6411L507.843 79.4403L503.957 74.3563C502.646 72.6775 501.429 70.9302 499.971 69.3512L491.53 59.6915L487.299 54.8862C485.877 53.2934 484.498 51.6715 482.937 50.1896L473.818 41.1489L469.244 36.6647C467.667 35.2216 466.02 33.8405 464.387 32.4471L454.606 24.1508L444.225 16.5867C443.356 15.9624 442.513 15.3183 441.629 14.7195L438.917 12.9963C437.116 11.8339 435.285 10.7358 433.463 9.6224C432.55 9.07486 431.655 8.49657 430.727 7.97462L427.882 6.48188L422.223 3.52215L416.336 1.01761C414.358 0.244551 412.36 -0.492622 410.309 -1.02104Z" fill="black"/>
<path d="M389.091 19.1747C392.405 21.3473 395.613 23.6089 398.742 25.9823C401.892 28.3199 404.998 30.6866 408.009 33.1827C414.045 38.1361 420.035 43.0893 425.688 48.4357C437.167 58.887 447.973 69.9735 458.28 81.4619C478.898 104.434 497.364 129.168 513.966 155.146L520.178 164.905L526.112 174.838C528.165 178.106 530.036 181.488 531.944 184.842L537.643 194.933C541.276 201.756 545.067 208.506 548.527 215.44L553.829 225.793L558.901 236.273C572.469 264.242 584.555 293.049 596.696 322.27C592.11 290.938 583.692 260.213 572.511 230.441L568.239 219.296L563.528 208.321C560.511 200.939 556.854 193.85 553.464 186.629C546.224 172.419 538.538 158.388 529.814 144.974C512.582 118.043 492.207 92.9719 468.804 71.11C457.067 60.2299 444.662 50.0568 431.365 41.1918C424.711 36.7762 417.907 32.5953 410.876 28.8432C403.829 25.1299 396.633 21.6514 389.091 19.1747Z" fill="black"/>
<path d="M361.512 2.3366C382.576 25.3616 402.527 48.8496 421.764 72.8537C441.021 96.8219 459.246 121.478 476.566 146.718C480.84 153.07 485.174 159.376 489.274 165.84C493.567 172.183 497.499 178.748 501.643 185.182C509.641 198.233 517.521 211.372 525.003 224.773C540.123 251.508 553.669 279.123 567.086 307.353C564.131 292.011 560.121 276.853 555.229 261.97C552.889 254.481 550.079 247.178 547.334 239.823C545.978 236.139 544.384 232.562 542.896 228.931C541.377 225.316 539.93 221.661 538.238 218.123L533.327 207.422C531.649 203.872 529.831 200.399 528.09 196.874C524.673 189.794 520.737 183.001 517.019 176.075C513.071 169.29 509.151 162.479 504.964 155.835C500.841 149.153 496.455 142.64 492.117 136.093C474.334 110.21 454.576 85.7009 432.853 63.1079C421.974 51.8289 410.692 40.9522 398.83 30.7375C386.896 20.6244 374.742 10.726 361.512 2.3366Z" fill="black"/>
<path d="M282.667 -0.838557C296.645 8.24214 310.097 17.7973 323.151 27.8398C336.241 37.8077 348.932 48.2072 361.254 58.9609C373.559 69.732 385.547 80.8179 397.051 92.3623C402.732 98.203 408.516 103.939 413.974 109.978L418.152 114.425L422.216 118.977C424.893 122.038 427.687 125.004 430.273 128.142L438.185 137.428C440.784 140.554 443.27 143.771 445.835 146.932C448.442 150.055 450.914 153.285 453.36 156.534C455.798 159.785 458.333 162.976 460.71 166.273C470.386 179.364 479.419 192.916 488.168 206.714C505.44 234.452 520.432 263.667 534.395 293.967C527.9 261.246 516.296 229.426 501.059 199.429C497.08 192.024 493.247 184.506 488.805 177.346C486.621 173.75 484.589 170.043 482.229 166.55L475.3 155.975C465.751 142.084 455.578 128.59 444.527 115.847C441.817 112.616 438.898 109.572 436.093 106.423L431.844 101.744L427.449 97.199C421.606 91.1286 415.55 85.2627 409.404 79.5159C397.038 68.0814 384.027 57.3739 370.476 47.434C356.905 37.53 342.854 28.3045 328.206 20.1479C313.503 12.1099 298.511 4.52601 282.667 -0.838557Z" fill="black"/>
<path d="M285.558 42.3795C292.225 45.1773 298.357 48.8542 304.311 52.7218C310.294 56.5381 316.016 60.7362 321.636 65.0049C327.137 69.4917 332.76 73.6944 337.997 78.4727L345.999 85.38L353.703 92.6615L361.427 99.8726L368.866 107.424C373.8 112.478 378.911 117.321 383.59 122.651C388.338 127.898 393.284 132.932 397.993 138.211L411.946 154.228C416.747 159.431 421.16 164.997 425.664 170.478L439.333 186.81C448.034 198.053 457.081 209.053 465.902 220.264C470.219 225.938 474.587 231.594 479.011 237.213L485.674 245.635C487.939 248.418 490.179 251.22 492.305 254.1C501.06 265.463 509.771 276.89 519.251 287.908C513.344 274.699 506.67 261.895 500.041 249.027C496.718 242.602 492.888 236.486 489.242 230.243C485.54 224.036 481.792 217.85 477.988 211.701C474.235 205.512 469.977 199.654 465.906 193.671C461.823 187.688 457.609 181.8 453.448 175.868C449.044 170.109 444.523 164.433 440.064 158.711C435.535 153.037 431.083 147.313 426.193 141.922L411.67 125.65C406.634 120.394 401.445 115.261 396.276 110.14C391.189 104.936 385.674 100.12 380.17 95.331L371.931 88.1366L363.251 81.4111C360.368 79.1664 357.454 76.9648 354.53 74.7786L345.412 68.6335C339.439 64.4336 332.948 60.9047 326.617 57.2768C323.394 55.5388 320.021 54.0356 316.752 52.4141C313.506 50.7516 310.065 49.4139 306.655 48.0939C303.299 46.6817 299.724 45.683 296.282 44.5491C292.72 43.6465 289.181 42.703 285.558 42.3795Z" fill="black"/>
<path d="M228.005 19.8773C245.472 46.2125 265.515 70.5935 286.286 94.2208C307.166 117.767 329.044 140.401 351.772 162.141C363.233 172.909 374.674 183.7 386.529 194.033C392.457 199.197 398.35 204.402 404.341 209.493C410.35 214.566 416.441 219.544 422.533 224.509C434.673 234.502 447.241 243.991 459.857 253.384C472.598 262.632 485.509 271.657 498.824 280.136C488.18 268.426 476.888 257.543 465.874 246.357C454.845 235.196 443.487 224.439 432.369 213.432L398.63 180.891L364.781 148.526L296.9 83.9617C274.158 62.4944 251.358 41.1031 228.005 19.8773Z" fill="black"/>
<path d="M170.761 120.171C196.645 127.564 221.807 135.769 246.581 144.848C271.315 153.973 295.56 164.039 319.1 175.479C342.63 186.926 365.521 199.61 387.445 214.002C409.554 228.194 430.282 244.435 450.995 261.706C447.203 256.164 443.459 250.48 439.153 245.283C437.075 242.615 434.89 240.036 432.735 237.419L425.951 229.856L422.499 226.115L418.896 222.526L411.604 215.407L404 208.627C401.477 206.338 398.857 204.17 396.197 202.06C375.106 184.852 351.781 170.401 327.315 158.543C302.844 146.668 277.163 137.446 250.937 130.751C237.807 127.452 224.533 124.792 211.147 122.929C197.743 121.179 184.28 119.804 170.761 120.171Z" fill="black"/>
<path d="M123.774 120.533C130.117 120.391 136.416 120.846 142.674 121.537C148.93 122.186 155.142 123.157 161.304 124.311C173.634 126.596 185.774 129.658 197.718 133.311C209.679 136.884 221.424 141.153 232.958 145.88C235.863 146.997 238.734 148.211 241.592 149.458C244.449 150.705 247.339 151.861 250.154 153.206L258.659 157.079L267.063 161.16C269.879 162.492 272.638 163.934 275.404 165.375C278.169 166.807 280.961 168.18 283.704 169.661C289.164 172.67 294.675 175.565 300.045 178.74L308.151 183.386L316.144 188.24C321.503 191.423 326.703 194.869 331.991 198.175C337.262 201.511 342.383 205.082 347.586 208.523L362.958 219.222L378.063 230.312L392.971 241.684L402.01 225.579C401.043 225.232 400.403 225.027 399.642 224.785L397.474 224.128C396.035 223.7 394.627 223.324 393.206 222.947C390.373 222.213 387.543 221.556 384.713 220.994C379.049 219.84 373.386 218.899 367.707 218.187C356.361 216.669 344.968 216.086 333.611 216.029C322.253 215.965 310.933 216.661 299.687 217.808C288.45 219.07 277.309 220.865 266.288 223.16C244.263 227.828 222.804 234.639 202.167 243.147C181.548 251.706 161.663 261.822 142.944 273.69C163.41 265.193 184.049 257.485 205.054 251.273C215.545 248.133 226.105 245.36 236.715 242.923C242.057 241.843 247.355 240.627 252.72 239.73C258.047 238.675 263.413 237.86 268.771 237.048C290.216 233.964 311.834 232.544 333.287 233.349C344.007 233.714 354.681 234.681 365.209 236.232C370.472 236.991 375.694 237.964 380.828 239.112C383.401 239.682 385.935 240.319 388.447 240.97C389.693 241.307 390.949 241.65 392.151 242.017L393.941 242.572L395.501 243.097L446.379 260.229L404.54 226.992C384.506 211.076 363.591 196.188 341.725 182.758C319.862 169.336 297.151 157.18 273.472 147.162C249.856 137.023 225.252 129.093 200.104 123.88C187.51 121.354 174.765 119.622 161.985 118.791C149.196 118.14 136.286 118.115 123.774 120.533Z" fill="black"/>
<path d="M138.925 160.99C159.491 166.24 179.759 170.8 199.924 175.621C220.07 180.404 240.057 185.334 259.819 190.817C279.576 196.311 299.119 202.316 318.302 209.417C327.87 213.009 337.421 216.762 346.811 221.016C356.218 225.252 365.466 229.908 374.881 234.9C368.07 226.721 360.041 219.566 351.535 213.057C342.994 206.576 333.804 201.017 324.387 195.922C305.448 185.902 285.341 178.343 264.847 172.683C244.338 167.015 223.41 163.207 202.355 161.075C191.822 160.053 181.258 159.416 170.669 159.332C160.094 159.282 149.488 159.57 138.925 160.99Z" fill="black"/>
<path d="M371.519 231.36C363.719 225.368 355.064 220.644 346.235 216.387C337.376 212.16 328.187 208.644 318.81 205.667C300.053 199.733 280.466 196.263 260.717 195.096C255.773 194.932 250.832 194.715 245.877 194.783C240.932 194.796 235.982 195.093 231.048 195.371C226.121 195.886 221.186 196.191 216.298 197.029C213.854 197.42 211.403 197.692 208.973 198.174L201.704 199.637C192.067 201.816 182.553 204.483 173.4 208.108C164.21 211.584 155.386 215.987 147.062 221.122C166.447 218.235 185.097 215.497 203.82 214.29C213.168 213.651 222.486 213.336 231.789 213.211C236.447 213.292 241.09 213.138 245.746 213.375C250.394 213.403 255.043 213.677 259.684 213.892C278.256 214.98 296.816 216.976 315.384 220.022C333.993 223.009 352.521 226.823 371.519 231.36Z" fill="black"/>
<path d="M415.09 244.766C405.18 241.625 394.97 239.725 384.739 238.263C374.493 236.84 364.167 236.027 353.818 235.705C333.126 235.154 312.311 236.472 291.809 240.005C286.677 240.852 281.589 241.942 276.49 242.993C271.428 244.215 266.354 245.375 261.349 246.842C251.326 249.679 241.425 253.003 231.823 257.086C212.603 265.08 194.293 275.601 178.68 289.256C198.274 282.46 217.218 276.068 236.598 271.109C241.397 269.763 246.277 268.689 251.089 267.438C255.97 266.412 260.766 265.118 265.659 264.188C275.371 262.066 285.154 260.224 294.97 258.572C314.591 255.172 334.402 252.647 354.381 250.458C374.382 248.267 394.485 246.573 415.09 244.766Z" fill="black"/>
<path d="M469.527 267.865C466.665 268.234 463.859 268.034 461.073 267.832L456.92 267.421L452.797 266.864C447.317 266.042 441.895 264.919 436.511 263.791C425.737 261.401 415.065 258.646 404.403 255.754C398.966 254.302 394.059 252.773 387.865 251.45C381.931 250.175 375.959 249.376 369.995 248.957C358.058 248.026 346.188 248.623 334.541 250.099C311.239 253.169 288.829 260.066 267.833 269.574C246.866 279.127 227.163 291.281 209.961 306.258C220.42 301.706 230.764 297.272 241.186 293.211C251.631 289.205 262.1 285.465 272.655 282.191C293.759 275.653 315.211 270.736 336.696 268.481C347.428 267.371 358.174 266.973 368.732 267.606C374.001 267.965 379.248 268.468 384.373 269.385L392.333 270.936L400.821 272.484C412.206 274.277 423.782 275.348 435.445 275.158C441.287 274.96 447.124 274.595 452.923 273.539C455.818 273.019 458.695 272.365 461.509 271.477C462.915 271.039 464.304 270.537 465.659 269.94C467.001 269.356 468.354 268.751 469.527 267.865Z" fill="black"/>
<path d="M503.326 280.414C495.94 279.488 488.535 278.88 481.141 278.523C473.745 278.124 466.35 277.959 458.949 277.898C444.158 277.819 429.39 278.373 414.642 279.377C399.895 280.381 385.192 282.005 370.533 284.063C363.195 285.029 355.903 286.363 348.589 287.548C341.303 288.934 334.024 290.33 326.765 291.916C319.513 293.491 312.3 295.329 305.077 297.112C297.908 299.146 290.71 301.04 283.606 303.363C269.388 307.896 255.289 312.981 241.634 319.306C227.984 325.587 214.646 332.771 202.276 341.484L193.234 348.335C190.37 350.847 187.519 353.325 184.749 355.863C182.062 358.531 179.522 361.346 176.987 364.082C174.654 367.057 172.392 370.053 170.261 373.069C182.388 364.435 195.118 357.808 208.335 352.24C221.529 346.666 235.035 341.996 248.689 337.753C255.502 335.602 262.409 333.691 269.291 331.717C276.248 329.944 283.102 327.913 290.114 326.28C304.023 322.744 318.05 319.488 332.147 316.442C346.214 313.27 360.375 310.371 374.568 307.491L417.265 298.89C445.816 293.101 474.465 287.45 503.326 280.414Z" fill="black"/>
<path d="M536.871 291.602C506.373 290.579 475.978 292.408 445.724 295.445C415.481 298.619 385.364 303.277 355.546 309.769C325.758 316.305 296.174 324.57 267.667 336.29C253.46 342.201 239.48 348.994 226.496 357.564C220.069 361.931 213.791 366.595 208.205 372.049C202.629 377.46 197.695 383.713 194.527 390.678C197.06 387.805 199.586 385.05 202.53 382.729C203.891 381.473 205.451 380.414 206.882 379.26C208.401 378.191 209.916 377.127 211.471 376.126C217.71 372.142 224.233 368.65 230.999 365.647C244.465 359.519 258.493 354.605 272.71 350.215C301.151 341.447 330.297 334.616 359.566 328.163C388.858 321.764 418.351 315.905 447.921 310.042C477.499 304.142 507.143 298.329 536.871 291.602Z" fill="black"/>
<path d="M578.122 312.023C563.371 310.492 548.646 310.143 533.942 310.113C519.237 310.145 504.566 310.708 489.917 311.672C460.632 313.658 431.448 317.292 402.51 322.687C395.288 324.137 388.062 325.537 380.866 327.145C373.677 328.763 366.498 330.518 359.347 332.343C345.069 336.165 330.868 340.455 316.921 345.607C302.981 350.758 289.242 356.768 276.161 364.121C274.534 365.06 272.892 365.928 271.285 366.926L266.518 369.956C264.953 370.999 263.351 371.952 261.827 373.066L257.298 376.453C254.242 378.6 251.474 381.242 248.711 383.744C248.039 384.401 247.325 384.986 246.695 385.687L244.82 387.8C243.568 389.187 242.358 390.598 241.182 392.008C253.969 384.513 267.403 379.706 281.074 375.445C294.752 371.256 308.603 367.701 322.591 364.524C336.583 361.377 350.618 358.378 364.717 355.552C371.793 354.223 378.81 352.689 385.914 351.431C392.966 349.992 400.066 348.704 407.148 347.365C435.509 342.046 463.96 336.787 492.475 331.189C520.983 325.464 549.532 319.667 578.122 312.023Z" fill="black"/>
<path d="M616.56 326.692C586.576 327.393 556.865 330.614 527.319 334.851C497.788 339.18 468.431 344.756 439.354 351.764C432.086 353.508 424.848 355.413 417.608 357.296C410.4 359.314 403.175 361.268 396.006 363.479C381.666 367.845 367.397 372.538 353.387 378.071C339.38 383.586 325.534 389.664 312.284 397.05C305.724 400.855 299.191 404.744 293.138 409.374C287.013 413.834 281.385 419.181 276.871 425.144C280.024 423.017 282.789 420.64 286.129 418.97C287.739 418.063 289.254 417.06 290.893 416.231L295.856 413.832C302.466 410.684 309.253 407.918 316.162 405.447C329.934 400.432 343.989 396.147 358.126 392.108C372.262 388.061 386.509 384.317 400.796 380.692C407.932 378.858 415.087 377.062 422.254 375.314C429.423 373.554 436.578 371.745 443.77 370.073L530.129 349.344C558.953 342.266 587.791 335.093 616.56 326.692Z" fill="black"/>
<path d="M648.037 340.802C631.683 344.115 615.477 347.539 599.224 350.583C582.998 353.71 566.792 356.671 550.572 359.126C542.483 360.505 534.353 361.424 526.274 362.611C518.161 363.416 510.085 364.585 502.002 365.067C493.917 365.861 485.883 366.07 477.846 366.414L465.887 366.324C463.889 366.332 461.898 366.315 459.979 366.102L454.168 365.642L448.33 365.241C445.779 364.929 443.505 364.811 441.228 364.746C436.679 364.619 432.244 364.755 427.838 365.1C419.052 365.879 410.399 367.219 401.976 369.355C385.103 373.508 369.026 379.972 353.918 387.95C324.003 404.511 297.884 426.712 277.001 452.735C303.371 432.311 330.97 414.358 360.391 401.267C375.212 395.027 390.386 389.914 405.862 386.784C409.71 385.879 413.606 385.424 417.478 384.771C419.415 384.421 421.361 384.35 423.298 384.117C425.238 383.926 427.176 383.692 429.106 383.66C432.962 383.415 436.823 383.315 440.555 383.462C442.416 383.526 444.284 383.649 445.842 383.859L452.399 384.388C461.251 385.258 469.787 385.031 478.387 384.978C486.891 384.357 495.432 384.004 503.805 382.795C512.241 381.889 520.534 380.381 528.837 378.962C537.079 377.281 545.335 375.671 553.458 373.594C569.759 369.65 585.811 364.921 601.594 359.462C617.341 353.901 632.98 348.065 648.037 340.802Z" fill="black"/>
<path d="M683.442 360.301C666.522 360.869 649.774 362.569 633.08 364.579C616.396 366.643 599.803 369.223 583.27 372.16C550.237 378.133 517.468 385.597 485.099 394.712C452.744 403.849 420.738 414.594 389.636 427.957C374.105 434.647 358.795 442.03 344.078 450.597C336.733 454.898 329.51 459.426 322.619 464.454C319.102 466.821 315.848 469.667 312.532 472.3C310.874 473.61 309.34 475.12 307.79 476.574C306.235 478.026 304.717 479.497 303.223 480.984C318.268 473.256 333.659 467.318 349.264 461.791C364.851 456.281 380.597 451.265 396.437 446.489C428.076 436.842 459.98 427.93 491.909 418.868C523.847 409.839 555.843 400.802 587.807 391.302C619.77 381.721 651.709 371.955 683.442 360.301Z" fill="black"/>
<path d="M705.152 371.17C677.515 380.532 650.375 390.406 623.236 400.171C596.118 409.969 569.041 419.627 541.921 429.076C514.736 438.33 487.501 447.255 460.052 455.748C432.522 463.943 404.852 471.422 376.52 478.594C405.727 479.226 434.948 475.613 463.654 470.111C492.272 464.17 520.457 456.306 548.059 446.876C575.594 437.264 602.602 426.249 628.922 413.798C642.066 407.54 655.063 400.971 667.796 393.902C680.5 386.775 693.116 379.481 705.152 371.17Z" fill="black"/>
<path d="M734.72 386.355C717.606 388.157 700.816 392.249 684.243 397.006C667.714 401.924 651.414 407.815 635.608 414.899C631.603 416.56 627.756 418.552 623.821 420.377C619.903 422.232 616.001 424.131 612.198 426.223L600.713 432.374L589.511 439.05C587.653 440.176 585.758 441.247 583.928 442.43L578.497 446.054L567.648 453.337L557.088 461.244L551.814 465.211C550.163 466.58 548.689 467.75 547.031 469.025C540.582 474.069 533.797 478.878 526.874 483.443C519.988 488.084 512.897 492.43 505.71 496.624C498.532 500.837 491.18 504.738 483.766 508.542C476.323 512.281 468.757 515.772 461.096 519.071C430.421 532.264 397.871 541.111 363.759 544.932C397.922 549.006 433.302 543.972 466.331 532.923C482.898 527.432 498.952 520.416 514.387 512.237C529.817 504.008 544.587 494.687 558.595 483.882C560.31 482.544 562.159 481.044 563.775 479.676L568.695 475.921L578.523 468.383L588.726 461.143L593.838 457.526L599.071 454.081L609.554 447.194L620.283 440.662C623.822 438.41 627.493 436.392 631.141 434.32C634.801 432.274 638.376 430.043 642.117 428.141C656.827 419.987 672.023 412.66 687.426 405.637C702.847 398.57 718.59 392.201 734.72 386.355Z" fill="black"/>
<path d="M775.922 412.841C769.418 414.384 763.263 417.228 757.339 420.274C751.401 423.346 745.701 426.808 740.163 430.487C729.1 437.858 718.622 446.024 708.711 454.736C706.167 456.859 703.77 459.107 701.357 461.347L694.115 468.083C689.503 472.761 684.729 477.304 680.245 482.102C675.786 486.916 671.251 491.672 666.928 496.605C662.631 501.553 658.379 506.54 654.17 511.56L653.925 511.855L653.561 512.355L652.585 513.69L651.438 515.192C650.667 516.208 649.849 517.211 649.011 518.236C647.404 520.299 645.636 522.296 643.933 524.324C640.366 528.279 636.78 532.266 633.008 536.103C625.477 543.779 617.573 551.212 609.178 558.137L606.064 560.798L602.843 563.315C600.675 564.965 598.606 566.809 596.391 568.411C594.165 570.008 591.96 571.65 589.751 573.324C587.573 575.051 585.213 576.454 582.953 578.085C573.88 584.577 564.183 590.149 554.334 596.316C565.778 594.989 577.258 592.502 588.21 588.494C599.275 584.702 609.911 579.597 620.07 573.65C630.255 567.718 639.884 560.796 648.856 553.05C653.358 549.191 657.706 545.125 661.855 540.836C663.899 538.644 665.983 536.501 667.97 534.207C668.982 533.091 669.951 531.91 670.929 530.713L672.401 528.885C672.9 528.245 673.358 527.677 673.968 526.834L673.358 527.629C677.562 522.784 681.722 517.908 685.833 512.988L698.25 498.329L723.161 469.135C731.511 459.44 739.932 449.833 748.531 440.309C757.252 430.868 765.808 421.299 775.922 412.841Z" fill="black"/>
<path d="M432.616 255.151C478.407 272.07 523.47 290.877 567.854 311.012C612.194 331.225 655.849 352.919 697.953 377.051C718.989 389.128 739.624 401.84 759.521 415.451C769.486 422.235 779.201 429.333 788.691 436.642C798.19 443.949 807.377 451.582 816.122 459.58C824.869 467.573 833.193 475.923 840.758 484.722C848.313 493.515 855.121 502.785 860.498 512.478C865.864 522.152 869.782 532.266 871.361 542.293C872.78 552.323 871.841 562.132 868.56 571.388L896.367 580.594C900.642 566.614 901.215 551.383 898.402 537.38C895.467 523.375 889.612 510.715 882.597 499.414C875.546 488.092 867.266 478.013 858.456 468.72C849.63 459.432 840.243 450.927 830.567 442.923C820.888 434.911 810.889 427.417 800.675 420.332C790.464 413.242 780.101 406.439 769.552 399.994C748.482 387.065 726.888 375.198 705.006 364.032C661.207 341.736 616.282 322.121 570.82 304.053C525.321 286.074 479.319 269.497 432.721 254.85L432.616 255.151Z" fill="black"/>
</g>
<defs>
<filter id="filter0_f_0_289" x="108.074" y="-16.721" width="807.758" height="628.737" filterUnits="userSpaceOnUse" color-interpolation-filters="sRGB">
<feFlood flood-opacity="0" result="BackgroundImageFix"/>
<feBlend mode="normal" in="SourceGraphic" in2="BackgroundImageFix" result="shape"/>
<feGaussianBlur stdDeviation="7.85" result="effect1_foregroundBlur_0_289"/>
</filter>
</defs>
</svg>
