<svg width="699" height="892" viewBox="0 0 699 892" fill="none" xmlns="http://www.w3.org/2000/svg">
<g opacity="0.3" filter="url(#filter0_f_0_319)">
<path d="M348.774 243.007C327.917 235.611 306.483 230.826 284.753 227.492C263.03 224.221 241.007 222.755 218.992 223.246C175.017 224.229 130.807 233.532 90.7428 252.642C50.5847 271.526 15.2031 300.123 -13.0352 334.281C-41.4683 368.391 -63.191 407.567 -80.0473 448.349L-79.478 447.241C-87.2414 460.081 -93.0395 472.843 -98.4673 486.163C-103.833 499.405 -108.434 512.92 -112.372 526.614C-120.326 553.994 -125.528 582.084 -128.729 610.373C-131.708 638.682 -132.706 667.2 -131.447 695.63C-130.269 724.055 -127.154 752.391 -122.272 780.403L-102.784 776.808C-108.024 749.693 -111.553 722.262 -113.206 694.717C-114.941 667.169 -114.481 639.516 -112.107 612.038C-109.514 584.591 -104.975 557.289 -97.7771 530.689C-94.2132 517.384 -90.0137 504.256 -85.089 491.431C-80.2227 478.712 -74.5221 465.798 -67.9909 454.525L-67.5775 453.815L-67.4215 453.417C-51.692 413.341 -31.2524 374.918 -4.32819 341.412C22.4166 307.867 56.0397 279.664 94.6264 260.659C133.108 241.448 176.031 231.544 219.199 229.801C240.801 228.927 262.512 229.98 283.996 232.819C305.43 235.7 326.88 240.118 347.296 246.942L348.774 243.007Z" fill="black"/>
<path d="M579.485 301.262C568.782 298.482 558.523 295.67 548.28 292.742L517.838 284.222L457.521 267.062C452.495 265.639 447.449 264.289 442.369 263.038C437.319 261.654 432.227 260.398 427.099 259.232C416.805 257.041 406.468 254.76 395.933 252.935C385.436 250.978 374.951 248.782 364.446 246.536C353.934 244.267 343.89 240.75 333.163 238.75C351.493 250.092 370.362 260.562 389.39 271.269C408.551 281.625 428.585 290.336 449.656 295.717C470.646 301.305 492.15 305.278 513.986 306.776C524.927 307.392 535.884 307.641 546.876 306.857C557.825 306.078 568.887 304.709 579.485 301.262Z" fill="black"/>
<path d="M628.703 212.636C602.808 200.007 575.471 192.789 547.884 187.529C520.242 182.503 492.129 180.078 463.855 180.511C435.613 180.975 407.126 184.266 379.383 191.857C365.54 195.632 351.885 200.576 338.928 207.06C326.033 213.584 313.618 221.39 303.41 231.63C331.633 226.506 357.781 223.972 384.53 222.599C411.107 221.094 437.715 220.642 464.503 220.135C491.294 219.678 518.25 219.331 545.509 218.501C572.816 217.514 600.262 216.372 628.703 212.636Z" fill="black"/>
<path d="M560.245 113.389C545.685 110.137 530.876 109.513 516.203 109.572L505.188 109.856C501.53 110.044 497.896 110.379 494.235 110.632C486.904 111.108 479.679 112.102 472.434 113.101C443.502 117.327 415.19 124.818 387.77 134.597L367.463 142.583C360.725 145.328 354.112 148.354 347.558 151.492C334.374 157.618 321.565 164.516 309.107 172.014C302.81 175.621 296.684 179.555 290.707 183.731C284.69 187.829 278.767 192.068 272.903 196.373C261.35 205.29 250.252 214.898 239.888 225.449C254.549 222.408 268.22 217.931 281.902 213.654C288.757 211.556 295.558 209.396 302.256 207.088C305.633 205.988 308.94 204.756 312.266 203.567C315.623 202.448 319.015 201.426 322.33 200.241C329.009 197.975 335.642 195.655 342.196 193.179L362.008 186.203C368.59 183.856 375.043 181.193 381.688 179.056L401.305 171.839L479.94 143.238C506.33 133.583 532.666 123.921 560.245 113.389Z" fill="black"/>
<path d="M566.694 50.0188C529.616 45.6166 492.184 49.3754 455.804 56.6748C419.358 64.0872 383.754 75.9058 349.917 91.6275C332.799 99.0594 316.629 108.538 300.431 117.741C292.617 122.872 284.745 127.89 277.071 133.185C273.262 135.88 269.249 138.239 265.643 141.23L254.686 149.956C225.184 172.704 199.648 200.533 178.651 231.013C211.104 212.465 240.602 192.567 272.111 175.796C287.318 166.672 303.387 159.08 318.797 150.541L342.582 138.921C346.54 136.983 350.388 134.827 354.408 133.014L366.488 127.617C398.45 112.718 431.075 99.0828 464.421 86.5117C497.764 73.7417 531.554 61.9427 566.694 50.0188Z" fill="black"/>
<path d="M379.119 -70.6621C355.307 -43.9563 333.249 -17.2817 311.016 9.2409C288.958 35.822 267.099 62.2821 244.943 88.4693L236.794 98.4279L228.371 108.145L211.827 127.871L178.321 167.125C156.29 193.811 133.031 219.347 111.445 248.123C143.512 232.3 173.197 212.239 200.25 189.272C214.124 178.113 226.749 165.651 239.515 153.298C251.802 140.512 264.084 127.653 275.31 113.916C298.191 86.7927 318.666 57.6693 336.493 26.9902C354.121 -3.75522 369.796 -35.9317 379.119 -70.6621Z" fill="black"/>
<path d="M268.681 -66.3145C251.111 -55.9504 235.612 -42.6501 221.149 -28.4452C206.718 -14.1702 193.457 1.35272 181.58 17.9166C169.761 34.5079 158.867 51.8984 149.817 70.2833C144.955 79.3178 141.079 88.8241 137 98.2446C134.891 102.928 133.268 107.809 131.529 112.645C129.825 117.491 128.028 122.307 126.414 127.181L126.082 128.191L125.942 128.807C125.326 131.56 124.374 135.209 123.439 138.492C122.507 141.873 121.415 145.226 120.389 148.63C118.37 155.439 115.952 162.145 113.57 168.879C108.735 182.332 103.116 195.507 97.0291 208.534C90.9736 221.624 83.7794 234.074 76.0707 246.54C68.3073 259.029 59.113 270.509 49.244 282.561C63.4372 276.603 77.1235 268.352 89.0707 258.058C100.995 247.788 112.111 236.219 121.399 223.422C130.898 210.741 139.106 197.129 146.222 182.987C149.754 175.898 152.936 168.645 155.931 161.268C157.455 157.599 158.769 153.828 160.087 150.03C161.417 146.143 162.595 142.579 163.866 138.056L163.394 139.682C170.136 121.975 176.889 104.281 184.859 87.0071C188.567 78.2455 192.919 69.7764 196.888 61.0889C201.298 52.6393 205.229 43.8661 209.9 35.4905C218.677 18.3924 228.129 1.52428 237.951 -15.3633C247.762 -32.2937 257.985 -49.076 268.681 -66.3145Z" fill="black"/>
<path d="M189.514 -36.7698C157.205 -14.6689 129.255 12.5867 103.543 41.6359C77.9371 70.8295 55.0876 102.522 35.2834 136.177C30.5108 144.7 25.6562 153.173 21.1838 161.88C16.6958 170.564 12.4963 179.427 8.39043 188.313C0.475005 206.25 -6.55917 224.623 -12.291 243.417C-17.8396 262.293 -22.2068 281.524 -24.8778 300.985C-25.872 310.807 -27.112 320.493 -27.1197 330.358C-27.1782 335.275 -27.4395 340.122 -27.1665 345.035C-26.8507 349.952 -26.6909 354.814 -26.2152 359.673C-22.6357 350.486 -19.879 341.35 -16.3307 332.437C-13.106 323.472 -9.4173 314.699 -6.04059 305.941C1.22368 288.523 8.80373 271.468 16.7894 254.631C25.005 237.876 33.3416 221.281 42.1422 204.885C46.6965 196.759 50.9076 188.477 55.653 180.449C60.0747 172.26 64.8435 164.239 69.4992 156.168C88.387 123.992 108.066 92.1153 128.378 60.2859C148.615 28.3513 169.238 -3.48595 189.514 -36.7698Z" fill="black"/>
<path d="M-104.221 528.844C-91.9501 484.709 -82.5568 440.565 -73.7875 396.399C-65.174 352.225 -57.2821 308.07 -49.6747 263.95L-27.2775 131.68C-19.5921 87.5917 -12.1991 43.663 -2.22101 -0.987061C-8.3272 8.65183 -14.0084 18.6144 -19.6389 28.7056C-24.8444 38.9177 -29.4572 49.3871 -34.222 59.8683C-38.9206 70.3767 -42.6444 81.1347 -46.6996 91.8653C-50.8132 102.592 -54.2445 113.463 -57.5784 124.377C-64.6204 146.15 -69.9701 168.267 -75.4563 190.395L-82.5646 223.753C-84.869 234.893 -86.7408 246.084 -88.7372 257.267C-96.4108 302.038 -101.698 347.128 -104.591 392.406C-107.329 437.692 -108.296 483.157 -104.221 528.844Z" fill="black"/>
<path d="M-120.311 571.4C-114.111 528.049 -111.062 485.048 -108.75 442.106C-106.57 399.171 -105.237 356.366 -104.546 313.611C-103.922 270.836 -103.455 228.194 -103.244 185.513C-102.956 142.715 -102.979 100.362 -99.8206 56.8076C-104.332 66.6844 -108.785 76.8379 -112.454 87.2216C-115.827 97.6208 -119.001 108.172 -121.894 118.786C-124.362 129.419 -126.749 140.103 -128.963 150.841C-131.053 161.572 -132.64 172.33 -134.321 183.119C-140.392 226.264 -143.597 269.655 -144.166 312.936C-144.818 356.237 -143.445 399.503 -139.807 442.625C-135.99 485.731 -130.511 528.774 -120.311 571.4Z" fill="black"/>
<path d="M-119.608 626.114L-163.385 517.158C-177.707 481.04 -191.51 444.909 -204.085 408.455C-216.644 372.002 -228.065 335.275 -237.24 297.916C-241.74 279.231 -245.935 260.413 -249.121 241.335C-252.478 222.256 -254.635 202.974 -256.53 183.205C-265.576 221.901 -265.272 262.663 -260.226 302.178C-255.06 341.806 -245.163 380.635 -232.171 418.161C-219.183 455.714 -203.087 492.047 -184.515 526.965C-165.744 561.761 -144.86 595.505 -119.608 626.114Z" fill="black"/>
<path d="M353.474 299.792C344.229 288.613 332.372 279.976 320.077 272.392L310.622 267.015C307.44 265.245 304.114 263.892 300.842 262.305C294.299 259.084 287.511 256.584 280.644 254.218C253.155 244.781 223.989 240.617 195.033 240.539L173.365 241.58C169.754 241.783 166.159 242.095 162.603 242.695C159.035 243.222 155.464 243.666 151.911 244.294C137.617 246.197 123.724 249.983 110.03 254.101C103.124 255.914 96.4877 258.674 89.8902 261.404C83.2849 264.118 76.7616 266.984 70.3122 269.924C63.9292 273.063 57.7919 276.821 51.6935 280.502C45.599 284.195 39.6526 288.153 33.8896 292.379C48.4766 292.071 62.1863 290.192 75.8141 288.613C82.6884 288.071 89.4886 287.455 96.207 286.679C99.5798 286.347 102.91 285.879 106.24 285.45C109.546 284.889 112.966 285.002 116.284 284.632C122.971 284.144 129.608 283.59 136.198 282.865C139.485 282.44 142.795 282.296 146.098 282.167L155.982 281.672C169.123 280.494 182.205 280.654 195.271 280.167C221.372 280.237 247.357 281.321 273.524 284.46C299.774 287.603 325.95 292.161 353.474 299.792Z" fill="black"/>
<path d="M321.091 416.796C317.656 408.307 313.109 400.275 308.126 392.539C303.166 384.764 297.606 377.34 291.566 370.278C279.533 356.1 265.523 343.362 249.953 332.495C218.919 310.663 180.957 296.922 142.081 294.543C132.255 294.013 122.948 293.97 112.697 294.598C103.093 295.452 93.8127 296.731 84.5287 298.458C66.0307 302.022 47.7824 307.286 30.2553 314.862C12.8219 322.555 -4.03842 332.514 -18.2433 345.807C-32.3273 359.033 -43.6351 376.096 -46.9767 394.457C-22.3843 366.777 8.99283 355.247 41.3642 346.614C57.585 342.41 74.2113 339.307 90.939 336.936C99.2833 335.766 107.729 334.705 115.929 334.07C123.501 333.43 132.088 333.384 140.104 333.617C172.682 334.635 204.91 342.773 235.402 357.255C265.788 371.912 294.744 391.853 321.091 416.796Z" fill="black"/>
<path d="M161.525 384.955C153.45 376.965 143.378 371.557 133.041 367.139C127.812 365.154 122.474 363.1 116.996 361.856C114.266 361.107 111.51 360.479 108.741 359.84C105.969 359.399 103.181 358.888 100.374 358.553C77.9141 355.48 54.8228 357.625 33.03 363.618L17.0392 369.128C11.6934 370.957 6.74921 373.624 1.71531 376.076C-8.44998 380.829 -17.699 387.115 -26.6243 393.67C-31.2098 396.758 -35.2533 400.591 -39.2851 404.365C-43.3208 408.136 -47.2201 412.027 -51.0218 415.954C-58.173 424.384 -64.6964 433.356 -70.1826 443.022C-59.1283 439.977 -49.4192 435.812 -39.7881 431.866C-34.8517 430.096 -30.0127 428.283 -25.3141 426.353C-20.6 424.446 -16.0613 422.309 -11.2613 420.785C-6.54717 419.096 -1.90706 417.357 2.62384 415.47C7.14304 413.524 11.9001 412.316 16.4661 410.651C25.524 407.091 34.8275 404.743 43.9244 401.714C62.36 396.668 80.8501 392.41 100.147 389.614C119.53 386.756 139.272 385.052 161.525 384.955Z" fill="black"/>
</g>
<defs>
<filter id="filter0_f_0_319" x="-279.44" y="-86.3621" width="923.843" height="882.465" filterUnits="userSpaceOnUse" color-interpolation-filters="sRGB">
<feFlood flood-opacity="0" result="BackgroundImageFix"/>
<feBlend mode="normal" in="SourceGraphic" in2="BackgroundImageFix" result="shape"/>
<feGaussianBlur stdDeviation="7.85" result="effect1_foregroundBlur_0_319"/>
</filter>
</defs>
</svg>
