<svg width="1187" height="746" viewBox="0 0 1187 746" fill="none" xmlns="http://www.w3.org/2000/svg">
<g opacity="0.3" filter="url(#filter0_f_0_268)">
<path d="M836.774 538.165C815.917 530.768 794.483 525.984 772.753 522.65C751.03 519.378 729.007 517.912 706.992 518.403C663.017 519.386 618.807 528.69 578.743 547.8C538.585 566.684 503.203 595.281 474.965 629.438C446.532 663.548 424.809 702.724 407.953 743.506L408.522 742.399C400.759 755.239 394.96 768.001 389.533 781.321C384.167 794.562 379.566 808.077 375.628 821.771C367.674 849.152 362.472 877.242 359.271 905.53C356.292 933.839 355.294 962.358 356.553 990.787C357.731 1019.21 360.846 1047.55 365.728 1075.56L385.216 1071.97C379.976 1044.85 376.447 1017.42 374.794 989.875C373.059 962.327 373.519 934.673 375.893 907.195C378.486 879.749 383.025 852.446 390.223 825.846C393.787 812.542 397.986 799.413 402.911 786.588C407.777 773.869 413.478 760.955 420.009 749.682L420.422 748.973L420.578 748.575C436.308 708.499 456.748 670.076 483.672 636.57C510.417 603.024 544.04 574.821 582.626 555.817C621.108 536.605 664.031 526.701 707.199 524.958C728.801 524.085 750.512 525.137 771.996 527.976C793.43 530.858 814.88 535.275 835.296 542.099L836.774 538.165Z" fill="black"/>
<path d="M1067.49 596.419C1056.78 593.639 1046.52 590.828 1036.28 587.9L1005.84 579.38L945.521 562.219C940.495 560.796 935.449 559.447 930.369 558.195C925.319 556.811 920.227 555.556 915.099 554.39C904.805 552.198 894.468 549.917 883.933 548.092C873.436 546.135 862.951 543.94 852.446 541.694C841.934 539.424 831.89 535.907 821.163 533.907C839.493 545.25 858.362 555.719 877.39 566.427C896.551 576.783 916.585 585.494 937.656 590.875C958.646 596.462 980.15 600.436 1001.99 601.933C1012.93 602.549 1023.88 602.799 1034.88 602.015C1045.82 601.235 1056.89 599.866 1067.49 596.419Z" fill="black"/>
<path d="M1116.7 507.794C1090.81 495.164 1063.47 487.947 1035.88 482.687C1008.24 477.661 980.129 475.235 951.855 475.668C923.613 476.132 895.126 479.423 867.383 487.015C853.54 490.789 839.885 495.734 826.928 502.218C814.033 508.741 801.618 516.548 791.41 526.787C819.633 521.663 845.781 519.129 872.53 517.756C899.107 516.251 925.715 515.799 952.503 515.292C979.294 514.836 1006.25 514.489 1033.51 513.658C1060.82 512.672 1088.26 511.529 1116.7 507.794Z" fill="black"/>
<path d="M1048.24 408.547C1033.69 405.295 1018.88 404.671 1004.2 404.729L993.188 405.014C989.53 405.201 985.896 405.536 982.235 405.79C974.904 406.266 967.679 407.26 960.434 408.258C931.502 412.485 903.19 419.975 875.77 429.755L855.463 437.74C848.725 440.485 842.112 443.511 835.558 446.65C822.374 452.776 809.565 459.673 797.107 467.172C790.81 470.778 784.684 474.713 778.707 478.889C772.69 482.987 766.767 487.225 760.903 491.53C749.35 500.448 738.252 510.055 727.888 520.607C742.549 517.565 756.22 513.089 769.902 508.811C776.757 506.714 783.558 504.553 790.256 502.245C793.633 501.145 796.94 499.913 800.266 498.724C803.623 497.605 807.015 496.583 810.33 495.398C817.009 493.133 823.642 490.813 830.196 488.337L850.008 481.361C856.59 479.013 863.043 476.35 869.688 474.214L889.305 466.996L967.94 438.395C994.33 428.741 1020.67 419.078 1048.24 408.547Z" fill="black"/>
<path d="M1054.69 345.176C1017.62 340.774 980.184 344.533 943.804 351.832C907.358 359.245 871.754 371.063 837.917 386.785C820.799 394.217 804.629 403.696 788.431 412.898C780.617 418.03 772.745 423.048 765.071 428.343C761.262 431.037 757.249 433.396 753.643 436.387L742.686 445.114C713.184 467.862 687.648 495.69 666.651 526.171C699.104 507.622 728.602 487.724 760.111 470.954C775.318 461.83 791.387 454.238 806.797 445.699L830.582 434.079C834.54 432.141 838.388 429.985 842.408 428.171L854.488 422.775C886.45 407.876 919.075 394.24 952.421 381.669C985.764 368.899 1019.55 357.1 1054.69 345.176Z" fill="black"/>
<path d="M867.119 224.495C843.307 251.201 821.249 277.876 799.016 304.398C776.958 330.979 755.099 357.44 732.943 383.627L724.794 393.585L716.371 403.302L699.827 423.029L666.321 462.282C644.29 488.968 621.031 514.504 599.445 543.281C631.512 527.458 661.197 507.396 688.25 484.43C702.124 473.27 714.749 460.808 727.515 448.455C739.802 435.67 752.084 422.81 763.31 409.073C786.191 381.95 806.666 352.827 824.493 322.148C842.121 291.402 857.796 259.226 867.119 224.495Z" fill="black"/>
<path d="M756.681 228.843C739.111 239.207 723.612 252.507 709.149 266.712C694.718 280.987 681.457 296.51 669.58 313.074C657.761 329.665 646.867 347.056 637.817 365.441C632.955 374.475 629.079 383.982 625 393.402C622.891 398.085 621.268 402.967 619.529 407.802C617.825 412.649 616.028 417.464 614.414 422.338L614.082 423.348L613.942 423.964C613.326 426.717 612.374 430.367 611.439 433.65C610.507 437.031 609.415 440.384 608.389 443.788C606.37 450.596 603.952 457.303 601.57 464.037C596.735 477.489 591.116 490.664 585.029 503.692C578.974 516.781 571.779 529.232 564.071 541.698C556.307 554.187 547.113 565.666 537.244 577.719C551.437 571.761 565.123 563.51 577.071 553.216C588.995 542.945 600.111 531.376 609.399 518.579C618.898 505.899 627.106 492.286 634.222 478.144C637.754 471.055 640.936 463.803 643.931 456.425C645.455 452.756 646.769 448.986 648.087 445.188C649.417 441.3 650.595 437.736 651.866 433.213L651.394 434.839C658.136 417.133 664.889 399.438 672.859 382.164C676.567 373.403 680.919 364.934 684.888 356.246C689.298 347.797 693.229 339.023 697.9 330.648C706.677 313.55 716.129 296.682 725.951 279.794C735.762 262.864 745.985 246.081 756.681 228.843Z" fill="black"/>
<path d="M677.514 258.388C645.205 280.488 617.255 307.744 591.543 336.793C565.937 365.987 543.088 397.68 523.283 431.334C518.511 439.858 513.656 448.331 509.184 457.038C504.696 465.721 500.496 474.584 496.39 483.471C488.475 501.407 481.441 519.78 475.709 538.574C470.16 557.451 465.793 576.682 463.122 596.143C462.128 605.965 460.888 615.65 460.88 625.516C460.822 630.432 460.561 635.279 460.833 640.192C461.149 645.109 461.309 649.971 461.785 654.83C465.364 645.643 468.121 636.508 471.669 627.594C474.894 618.63 478.583 609.856 481.959 601.099C489.224 583.681 496.804 566.626 504.789 549.789C513.005 533.034 521.342 516.439 530.142 500.042C534.696 491.916 538.908 483.634 543.653 475.606C548.075 467.417 552.843 459.397 557.499 451.325C576.387 419.149 596.066 387.273 616.378 355.443C636.615 323.509 657.238 291.671 677.514 258.388Z" fill="black"/>
<path d="M383.779 824.002C396.05 779.866 405.443 735.723 414.213 691.556C422.826 647.382 430.718 603.227 438.325 559.108L460.723 426.838C468.408 382.749 475.801 338.821 485.779 294.17C479.673 303.809 473.992 313.772 468.361 323.863C463.156 334.075 458.543 344.545 453.778 355.026C449.079 365.534 445.356 376.292 441.3 387.023C437.187 397.75 433.755 408.621 430.422 419.535C423.38 441.308 418.03 463.424 412.544 485.552L405.435 518.91C403.131 530.05 401.259 541.241 399.263 552.424C391.589 597.195 386.302 642.286 383.409 687.564C380.671 732.849 379.704 778.314 383.779 824.002Z" fill="black"/>
<path d="M367.689 866.558C373.889 823.206 376.938 780.205 379.25 737.263C381.43 694.329 382.764 651.523 383.454 608.768C384.078 565.994 384.545 523.352 384.756 480.671C385.045 437.873 385.021 395.519 388.179 351.965C383.668 361.842 379.215 371.995 375.546 382.379C372.173 392.778 368.999 403.33 366.106 413.943C363.638 424.576 361.251 435.26 359.037 445.999C356.947 456.729 355.36 467.487 353.679 478.277C347.608 521.421 344.403 564.812 343.834 608.094C343.182 651.395 344.555 694.66 348.193 737.782C352.01 780.888 357.489 823.931 367.689 866.558Z" fill="black"/>
<path d="M368.392 921.272L324.615 812.316C310.293 776.197 296.49 740.067 283.915 703.613C271.356 667.159 259.935 630.432 250.76 593.074C246.26 574.389 242.065 555.571 238.879 536.492C235.522 517.413 233.365 498.131 231.47 478.362C222.424 517.058 222.728 557.821 227.774 597.336C232.94 636.964 242.837 675.792 255.829 713.318C268.817 750.872 284.913 787.205 303.485 822.122C322.256 856.919 343.14 890.663 368.392 921.272Z" fill="black"/>
<path d="M841.474 594.949C832.229 583.77 820.372 575.133 808.077 567.549L798.622 562.172C795.44 560.402 792.114 559.049 788.842 557.462C782.3 554.241 775.511 551.742 768.644 549.375C741.155 539.939 711.989 535.774 683.033 535.696L661.365 536.738C657.754 536.94 654.159 537.252 650.603 537.853C647.035 538.379 643.464 538.824 639.911 539.452C625.617 541.354 611.724 545.14 598.03 549.258C591.124 551.071 584.488 553.832 577.89 556.561C571.285 559.275 564.762 562.141 558.312 565.081C551.929 568.22 545.792 571.979 539.693 575.66C533.599 579.352 527.653 583.31 521.89 587.537C536.477 587.229 550.186 585.349 563.814 583.77C570.688 583.228 577.489 582.612 584.207 581.836C587.58 581.505 590.91 581.037 594.24 580.608C597.546 580.046 600.966 580.159 604.284 579.789C610.971 579.302 617.608 578.748 624.198 578.023C627.485 577.598 630.795 577.453 634.098 577.325L643.982 576.829C657.123 575.652 670.205 575.812 683.271 575.324C709.372 575.395 735.357 576.479 761.524 579.617C787.774 582.76 813.95 587.318 841.474 594.949Z" fill="black"/>
<path d="M809.091 711.953C805.656 703.465 801.109 695.432 796.126 687.696C791.166 679.921 785.606 672.497 779.566 665.436C767.533 651.258 753.523 638.519 737.953 627.652C706.919 605.82 668.957 592.079 630.081 589.701C620.255 589.171 610.948 589.128 600.697 589.756C591.093 590.609 581.813 591.888 572.529 593.616C554.031 597.18 535.782 602.444 518.255 610.02C500.822 617.713 483.962 627.672 469.757 640.964C455.673 654.19 444.365 671.253 441.023 689.615C465.616 661.934 496.993 650.404 529.364 641.771C545.585 637.568 562.211 634.464 578.939 632.093C587.283 630.924 595.729 629.863 603.929 629.227C611.501 628.588 620.088 628.541 628.104 628.775C660.682 629.793 692.91 637.93 723.402 652.412C753.788 667.069 782.744 687.01 809.091 711.953Z" fill="black"/>
<path d="M649.525 680.112C641.45 672.123 631.378 666.715 621.041 662.297C615.812 660.312 610.474 658.257 604.996 657.013C602.266 656.265 599.51 655.637 596.741 654.997C593.969 654.557 591.181 654.046 588.374 653.711C565.914 650.638 542.823 652.783 521.03 658.776L505.039 664.285C499.693 666.114 494.749 668.781 489.715 671.234C479.55 675.987 470.301 682.273 461.376 688.827C456.79 691.915 452.747 695.748 448.715 699.523C444.679 703.293 440.78 707.185 436.978 711.111C429.827 719.541 423.304 728.513 417.817 738.18C428.872 735.134 438.581 730.97 448.212 727.024C453.148 725.254 457.987 723.44 462.686 721.51C467.4 719.604 471.939 717.467 476.739 715.942C481.453 714.254 486.093 712.515 490.624 710.628C495.143 708.682 499.9 707.473 504.466 705.808C513.524 702.248 522.828 699.901 531.924 696.871C550.36 691.826 568.85 687.568 588.147 684.772C607.53 681.914 627.272 680.21 649.525 680.112Z" fill="black"/>
</g>
<defs>
<filter id="filter0_f_0_268" x="208.56" y="208.795" width="923.843" height="882.465" filterUnits="userSpaceOnUse" color-interpolation-filters="sRGB">
<feFlood flood-opacity="0" result="BackgroundImageFix"/>
<feBlend mode="normal" in="SourceGraphic" in2="BackgroundImageFix" result="shape"/>
<feGaussianBlur stdDeviation="7.85" result="effect1_foregroundBlur_0_268"/>
</filter>
</defs>
</svg>
