<svg width="57" height="67" viewBox="0 0 57 67" fill="none" xmlns="http://www.w3.org/2000/svg">
<path d="M12.4458 7.35817C18.3323 1.47163 25.7606 0 28.7389 0V19.366C26.4212 19.366 25.3204 20.4709 25.0598 21.0233C14.1276 16.3982 8.5915 7.53337 7.18994 3.67909C8.45134 5.36095 11.2194 6.83259 12.4458 7.35817Z" fill="white"/>
<path d="M44.6441 7.35817C38.7575 1.47163 31.3293 0 28.351 0V19.366C30.6687 19.366 31.7694 20.4709 32.0301 21.0233C42.9622 16.3982 48.4983 7.53337 49.8999 3.67909C48.6385 5.36095 45.8704 6.83259 44.6441 7.35817Z" fill="white"/>
<path d="M15.8628 19.5297C17.5207 20.7798 21.2522 23.4265 22.915 24.0135C19.749 25.0054 13.906 25.4972 15.8628 19.5297Z" fill="white"/>
<path d="M12.8876 16.921C11.8441 16.1384 10.0343 13.6329 9.25982 12.478C6.24935 15.4885 5.92222 21.4227 6.13497 24.0135C6.13497 43.5712 2.47956 52.7077 0.651855 54.8313L8.39506 48.9152L13.6378 57.5729L19.7351 52.2715L28.5696 67.0001V62.1469L25.6611 52.2715C23.2802 41.7738 15.9357 37.1024 12.5611 36.0789L19.7351 32.0027L19.9796 28.6195C10.2947 28.6195 11.2162 20.8205 12.8876 16.921Z" fill="white"/>
<path d="M41.2251 19.5297C39.5672 20.7798 35.8357 23.4265 34.1728 24.0135C37.3389 25.0054 43.1819 25.4972 41.2251 19.5297Z" fill="white"/>
<path d="M44.2003 16.921C45.2438 16.1384 47.0536 13.6329 47.8281 12.478C50.8385 15.4885 51.1657 21.4227 50.9529 24.0135C50.9529 43.5712 54.6083 52.7077 56.436 54.8313L48.6928 48.9152L43.4501 57.5729L37.3528 52.2715L28.5183 67.0001V62.1469L31.4268 52.2715C33.8077 41.7738 41.1522 37.1024 44.5268 36.0789L37.3528 32.0027L37.1083 28.6195C46.7932 28.6195 45.8717 20.8205 44.2003 16.921Z" fill="white"/>
<path d="M23.8265 29.6339C23.8265 25.7677 27.1231 23.8645 28.7713 23.3962V50.3698C28.7713 43.3117 23.0022 37.9507 20.1177 36.1525L23.8265 33.8485V29.6339Z" fill="white"/>
<path d="M33.7057 29.6339C33.7057 25.7677 30.4092 23.8645 28.7609 23.3962V50.3698C28.7609 43.3117 34.53 37.9507 37.4146 36.1525L33.7057 33.8485V29.6339Z" fill="white"/>
</svg>
