<svg width="72" height="58" viewBox="0 0 72 58" fill="none" xmlns="http://www.w3.org/2000/svg">
<path d="M0.395508 11.4859L28.994 0L57.6546 11.4859L28.9631 23.0028L0.395508 11.4859Z" fill="white"/>
<path d="M2.86016 11.5015V47.0908L0.395569 46.0987V11.5015H2.86016Z" fill="white"/>
<path d="M30.2493 21.4526V57.197L29.1332 57.6465L27.8002 57.1039V21.4526H30.2493Z" fill="white"/>
<path d="M32.4352 56.3137L30.2496 57.1972L29.1336 57.6467L27.8006 57.1042L25.8319 56.3137L2.86016 47.0909L0.395569 46.0988V43.4481L2.86016 44.4402L27.8006 54.4536L29.1336 54.996L30.2496 55.4457L32.4352 56.3137Z" fill="white"/>
<path d="M0.395569 11.4858V14.152L30.2496 26.1338V23.4833L0.395569 11.4858Z" fill="white"/>
<path d="M71.264 6.01404L28.8235 23.0646L29.738 25.3432L71.264 8.68013V6.01404Z" fill="white"/>
<path d="M71.264 16.7096L28.8235 33.7447L29.738 36.0389L71.264 19.3603V16.7096Z" fill="white"/>
<path d="M71.264 27.3895L28.8235 44.4401L29.738 46.7186L71.264 30.0557V27.3895Z" fill="white"/>
<path d="M71.264 38.0847V40.7354L32.4351 56.3134L30.2495 57.1971L29.1336 57.6465L27.8005 57.104L25.832 56.3134L27.8005 55.523L29.1336 54.9959L30.2495 54.5464L71.264 38.0847Z" fill="white"/>
</svg>
