<svg width="67" height="54" viewBox="0 0 67 54" fill="none" xmlns="http://www.w3.org/2000/svg">
<path fill-rule="evenodd" clip-rule="evenodd" d="M59.6002 0.362874C60.4068 0.0415685 61.2897 -0.0692477 62.1569 0.0419585C63.0241 0.153165 63.844 0.482329 64.5312 0.99519C65.2184 1.50805 65.7478 2.18586 66.0643 2.95807C66.3808 3.73027 66.4728 4.56865 66.3307 5.38593L58.9278 47.8842C58.2097 51.9836 53.4572 54.3345 49.4848 52.2925C46.1619 50.5842 41.2266 47.9522 36.7875 45.2058C34.5679 43.8312 27.7688 39.429 28.6044 36.2966C29.3225 33.6182 40.7468 23.5536 47.275 17.5698C49.8373 15.2189 48.6688 13.8627 45.643 16.0252C38.129 21.3942 26.065 29.559 22.0762 31.8574C18.5576 33.8839 16.7231 34.2299 14.5297 33.8839C10.5279 33.2537 6.81664 32.2775 3.78757 31.0882C-0.305595 29.4818 -0.106486 24.156 3.78431 22.6052L59.6002 0.362874Z" fill="white"/>
</svg>
