<svg xmlns="http://www.w3.org/2000/svg" width="492" height="11" viewBox="0 0 492 11" fill="none">
  <path d="M0 9.05981V1.89606C0 1.41848 2.15691 1.00059 6.47072 0.6424C11.6473 0.284212 18.118 0.105119 25.8829 0.105119C60.3934 0.045421 132.866 0.0752684 243.299 0.194664C353.733 0.31406 426.205 0.254365 460.715 0.0155735C477.108 -0.103822 486.167 0.463303 487.892 1.71696L491.775 8.88072C493.5 10.015 485.304 10.6418 467.186 10.7612C432.676 11 359.341 11.0597 247.182 10.9403C135.022 10.8209 61.2562 10.7911 25.8829 10.8508C8.62763 10.8508 0 10.2538 0 9.05981Z" fill="#6A3200"/>
</svg>